<?xml version="1.0" encoding="UTF-8"?>
<!-- Created with Inkscape (http://www.inkscape.org/) -->
<svg width="340" height="86" version="1.1" xmlns="http://www.w3.org/2000/svg" xmlns:cc="http://creativecommons.org/ns#" xmlns:dc="http://purl.org/dc/elements/1.1/" xmlns:rdf="http://www.w3.org/1999/02/22-rdf-syntax-ns#" xmlns:xlink="http://www.w3.org/1999/xlink">
<metadata>
<rdf:RDF>
<cc:Work rdf:about="">
<dc:format>image/svg+xml</dc:format>
<dc:type rdf:resource="http://purl.org/dc/dcmitype/StillImage"/>
<dc:title/>
</cc:Work>
</rdf:RDF>
</metadata>
<defs>
<linearGradient id="k" x2="1" gradientTransform="translate(-44.215 -9.85)" gradientUnits="userSpaceOnUse" xlink:href="#linearGradient11392"/>
<linearGradient id="j" x1="-7708.8" x2="-7633.2" y1="-803.36" y2="-714.91" gradientTransform="matrix(.4226 -.9063 .9063 .4226 4227 -6584.6)" gradientUnits="userSpaceOnUse" xlink:href="#t"/>
<linearGradient id="i" x1="-8268.6" x2="-7729" y1="-813.12" y2="-813.12" gradientTransform="matrix(.4226 -.9063 .9063 .4226 4227 -6584.6)" gradientUnits="userSpaceOnUse" xlink:href="#s"/>
<linearGradient id="h" x1="-8203.5" x2="-7881.9" y1="-758.99" y2="-758.99" gradientTransform="matrix(.4226 -.9063 .9063 .4226 4227 -6584.6)" gradientUnits="userSpaceOnUse" xlink:href="#r"/>
<linearGradient id="g" x1="-8238.3" x2="-7698.6" y1="-818.15" y2="-818.15" gradientTransform="matrix(.4226 -.9063 .9063 .4226 4227 -6584.6)" gradientUnits="userSpaceOnUse" xlink:href="#q"/>
<linearGradient id="f" x1="-8199" x2="-7915.4" y1="-810.85" y2="-810.85" gradientTransform="matrix(.4226 -.9063 .9063 .4226 4227 -6584.6)" gradientUnits="userSpaceOnUse" xlink:href="#p"/>
<linearGradient id="e" x1="-8238.3" x2="-7698.6" y1="-762.3" y2="-762.3" gradientTransform="matrix(.4226 -.9063 .9063 .4226 4227 -6584.6)" gradientUnits="userSpaceOnUse" xlink:href="#o"/>
<linearGradient id="d" x1="-8271.8" x2="-7732.1" y1="-765.07" y2="-765.07" gradientTransform="matrix(.4226 -.9063 .9063 .4226 4227 -6584.6)" gradientUnits="userSpaceOnUse" xlink:href="#n"/>
<linearGradient id="c" x1="-8238.3" x2="-7698.6" y1="-745.68" y2="-745.68" gradientTransform="matrix(.4226 -.9063 .9063 .4226 4227 -6584.6)" gradientUnits="userSpaceOnUse" xlink:href="#m"/>
<linearGradient id="b" x1="-8238.3" x2="-7698.6" y1="-747.59" y2="-747.59" gradientTransform="matrix(.4226 -.9063 .9063 .4226 4227 -6584.6)" gradientUnits="userSpaceOnUse" xlink:href="#l"/>
<linearGradient id="a" x1="-7935.1" x2="-7815.9" y1="-747.97" y2="-747.97" gradientTransform="matrix(.4226 -.9063 .9063 .4226 4227 -6584.6)" gradientUnits="userSpaceOnUse" xlink:href="#u"/>
</defs>
<text x="199.61313" y="196.18768" fill="url(#k)" font-family="'Alte Haas Grotesk'" font-size="14px" font-style="italic" font-weight="bold" letter-spacing="0px" word-spacing="0px" style="line-height:0%" xml:space="preserve"><tspan x="199.61313" y="196.18768" fill="url(#k)"/></text>
<g transform="matrix(.095613 -.070175 .070175 .095613 132.74 36.368)">
<path d="m267.1 19.6c-8.4 5-22.4 19-39 39.3l15.3 28.9c10.7-15.4 21.7-29.2 32.7-41 0.8-0.9 1.3-1.4 1.3-1.4-0.4 0.5-0.9 0.9-1.3 1.4-3.6 3.9-14.4 16.5-30.7 41.6 15.7-0.8 39.8-4 59.5-7.4 5.9-32.8-5.7-47.8-5.7-47.8s-14.8-23.9-32.1-13.6z" fill="url(#j)"/>
<path d="m241.1 184.4c0.1 0 0.2 0 0.3-0.1l-2.2 0.2c-0.1 0.1-0.3 0.1-0.4 0.2 0.8-0.1 1.6-0.2 2.3-0.3z" fill="none"/>
<path d="m225.5 236.1c-1.2 0.3-2.5 0.5-3.8 0.7 1.3-0.2 2.6-0.4 3.8-0.7z" fill="none"/>
<path d="m119.3 352.2c0.2-0.4 0.3-0.9 0.5-1.3 3.4-8.9 6.7-17.5 10-26 3.7-9.4 7.4-18.6 11-27.5 3.8-9.3 7.6-18.4 11.3-27.1 3.9-9.2 7.7-18 11.5-26.5 3.1-6.9 6.1-13.6 9.1-20.1 1-2.2 2-4.3 3-6.4 2-4.2 3.9-8.3 5.8-12.3 1.8-3.7 3.5-7.3 5.2-10.9 0.6-1.2 1.2-2.4 1.7-3.5l0.3-0.6-1.9 0.2-1.5-2.9c-0.1 0.3-0.3 0.6-0.4 0.9-2.7 5.3-5.4 10.7-8 16.2-1.5 3.1-3 6.3-4.6 9.5-4.2 8.8-8.3 17.6-12.3 26.6-4.1 9-8.1 18.1-12 27.1-3.9 8.9-7.6 17.8-11.3 26.7s-7.3 17.7-10.8 26.5c-3.7 9.2-7.3 18.3-10.7 27.3-0.8 2-1.6 4.1-2.3 6.1-2.8 7.3-5.5 14.4-8.1 21.5l2.4 4.7 2.1-0.2c0.1-0.2 0.2-0.4 0.2-0.6 3.1-9.5 6.5-18.6 9.8-27.4z" fill="none"/>
<path d="m220.7 236.9z" fill="none"/>
<path d="m215.6 262.2c-2 0.4-4 0.7-6 1 1-0.1 2.1-0.3 3.1-0.5 1-0.1 2-0.3 2.9-0.5z" fill="#be202e"/>
<path d="m215.6 262.2c-2 0.4-4 0.7-6 1 1-0.1 2.1-0.3 3.1-0.5 1-0.1 2-0.3 2.9-0.5z" fill="#be202e" opacity=".35"/>
<path d="m220.8 236.9c-0.1 0-0.1 0 0 0 0.3 0 0.6-0.1 0.9-0.1 1.3-0.2 2.6-0.4 3.8-0.7-1.5 0.3-3.1 0.5-4.7 0.8z" fill="#be202e"/>
<path d="m220.8 236.9c-0.1 0-0.1 0 0 0 0.3 0 0.6-0.1 0.9-0.1 1.3-0.2 2.6-0.4 3.8-0.7-1.5 0.3-3.1 0.5-4.7 0.8z" fill="#be202e" opacity=".35"/>
<path d="m198.2 162.4c4.7-8.7 9.4-17.2 14.1-25.5 4.9-8.6 9.9-16.9 15-25 0.3-0.5 0.6-1 0.9-1.4 5-7.9 10-15.5 15.1-22.8l-15.3-28.8c-1.1 1.4-2.3 2.8-3.5 4.3-4.4 5.5-9 11.4-13.7 17.7-5.3 7.1-10.7 14.6-16.3 22.5-5.1 7.3-10.3 15-15.5 22.9-4.4 6.8-8.8 13.7-13.2 20.8-0.2 0.3-0.3 0.5-0.5 0.8l19.9 39.3c4.4-8.3 8.7-16.6 13-24.8z" fill="url(#i)"/>
<path d="m107.5 384.1c-2.6 7.2-5.3 14.6-7.9 22.2 0 0.1-0.1 0.2-0.1 0.3-0.4 1.1-0.8 2.1-1.1 3.2-1.8 5.1-3.3 9.7-6.9 20.1 5.9 2.7 10.6 9.7 15 17.7-0.5-8.3-3.9-16.1-10.4-22.1 28.9 1.3 53.9-6 66.7-27.2 1.1-1.9 2.2-3.9 3.2-6-5.9 7.4-13.1 10.6-26.8 9.8h-0.1 0.1c20.1-9 30.2-17.7 39.1-32 2.1-3.4 4.2-7.1 6.3-11.2-17.6 18.1-38 23.2-59.5 19.3l-16.1 1.8c-0.5 1.4-1 2.7-1.5 4.1z" fill="url(#h)"/>
<path d="m115 348c3.5-9 7.1-18.1 10.7-27.3 3.5-8.8 7.1-17.6 10.8-26.5s7.5-17.8 11.3-26.7c3.9-9.1 7.9-18.1 12-27.1 4-8.9 8.2-17.8 12.3-26.6 1.5-3.2 3-6.3 4.6-9.5 2.6-5.4 5.3-10.8 8-16.2 0.1-0.3 0.3-0.6 0.4-0.9l-19.7-39.2c-0.3 0.5-0.6 1.1-1 1.6-4.6 7.6-9.3 15.3-13.8 23.2-4.6 8-9.1 16.1-13.5 24.4-3.7 7-7.3 14-10.9 21.1-0.7 1.4-1.4 2.9-2.1 4.3-4.3 8.9-8.3 17.6-11.8 25.9-4 9.4-7.5 18.4-10.6 26.9-2 5.6-3.9 11-5.6 16.2-1.4 4.4-2.7 8.9-4 13.3-3 10.4-5.5 20.8-7.6 31.2l20 39.5c2.6-7.1 5.4-14.2 8.1-21.5 0.8-2 1.6-4 2.4-6.1z" fill="url(#g)"/>
<path d="m84.2 337.5c-2.5 12.6-4.3 25.2-5.2 37.8 0 0.4-0.1 0.9-0.1 1.3-6.2-10-23-19.8-22.9-19.7 12 17.4 21.1 34.6 22.4 51.5-6.4 1.3-15.2-0.6-25.3-4.3 10.6 9.7 18.5 12.4 21.6 13.1-9.7 0.6-19.8 7.3-30 15 14.9-6.1 27-8.5 35.6-6.5-13.7 38.7-27.4 81.5-41.1 126.9 4.2-1.2 6.7-4.1 8.1-7.9 2.4-8.2 18.7-62.2 44.1-133.1 0.7-2 1.5-4 2.2-6.1 0.2-0.6 0.4-1.1 0.6-1.7 2.7-7.4 5.5-15 8.4-22.8 0.7-1.8 1.3-3.5 2-5.3v-0.1l-20-39.5c-0.2 0.5-0.3 0.9-0.4 1.4z" fill="url(#f)"/>
<path d="m188.4 190.6c-0.6 1.2-1.1 2.3-1.7 3.5-1.7 3.6-3.5 7.2-5.2 10.9-1.9 4-3.8 8.1-5.8 12.3-1 2.1-2 4.2-3 6.4-3 6.5-6 13.2-9.1 20.1-3.8 8.5-7.6 17.3-11.5 26.5-3.7 8.7-7.5 17.8-11.3 27.1-3.6 8.9-7.3 18-11 27.5-3.3 8.4-6.6 17.1-10 26-0.2 0.4-0.3 0.9-0.5 1.3-3.3 8.8-6.7 17.9-10.1 27.2-0.1 0.2-0.2 0.4-0.2 0.6l16.1-1.8c-0.3-0.1-0.6-0.1-1-0.2 19.3-2.4 44.9-16.8 61.4-34.6 7.6-8.2 14.5-17.8 20.9-29.1 4.8-8.4 9.2-17.7 13.5-28.1 3.7-9 7.3-18.8 10.7-29.4-4.4 2.3-9.5 4-15.1 5.2l-3 0.6c-1 0.2-2 0.3-3.1 0.5 18-6.9 29.3-20.2 37.5-36.6-4.7 3.2-12.4 7.4-21.6 9.5-1.2 0.3-2.5 0.5-3.8 0.7-0.3 0-0.6 0.1-1 0.1 6.2-2.6 11.5-5.5 16.1-9 1-0.7 1.9-1.5 2.8-2.3 1.4-1.2 2.7-2.5 4-3.8 0.8-0.9 1.6-1.7 2.4-2.6 1.8-2.1 3.5-4.4 5-6.9 0.5-0.8 1-1.5 1.4-2.3 0.6-1.2 1.2-2.3 1.7-3.4 2.5-5 4.5-9.5 6.1-13.5 0.8-2 1.5-3.8 2.1-5.5 0.2-0.7 0.5-1.3 0.7-2 0.6-1.9 1.2-3.6 1.6-5.1 0.6-2.2 1-4 1.2-5.3-0.6 0.5-1.3 1-2.1 1.4-5.4 3.2-14.7 6.2-22.2 7.6l14.8-1.6-14.8 1.6c-0.1 0-0.2 0-0.3 0.1-0.7 0.1-1.5 0.2-2.3 0.4 0.1-0.1 0.3-0.1 0.4-0.2l-50.6 5.5c0.1 0.4 0 0.6-0.1 0.7z" fill="url(#e)"/>
<path d="m245.4 88.4c-4.5 6.9-9.4 14.8-14.7 23.6-0.3 0.5-0.6 0.9-0.8 1.4-4.6 7.7-9.4 16.1-14.5 25.4-4.4 8-9 16.5-13.8 25.8-4.2 8-8.4 16.5-12.9 25.5l50.6-5.5c14.7-6.8 21.3-12.9 27.7-21.8 1.7-2.4 3.4-5 5.1-7.7 5.2-8.1 10.3-17 14.8-25.9 4.4-8.6 8.3-17.1 11.2-24.7 1.9-4.9 3.4-9.4 4.5-13.4 0.9-3.5 1.6-6.8 2.2-10-19.6 3.3-43.7 6.5-59.4 7.3z" fill="url(#d)"/>
<path d="m212.7 262.8c-1 0.2-2 0.3-3.1 0.5 1-0.2 2-0.4 3.1-0.5z" fill="#be202e"/>
<path d="m212.7 262.8c-1 0.2-2 0.3-3.1 0.5 1-0.2 2-0.4 3.1-0.5z" fill="#be202e" opacity=".35"/>
<path d="m212.7 262.8c-1 0.2-2 0.3-3.1 0.5 1-0.2 2-0.4 3.1-0.5z" fill="url(#c)"/>
<path d="m220.7 236.9c0.3 0 0.6-0.1 1-0.1-0.3 0-0.6 0.1-1 0.1z" fill="#be202e"/>
<path d="m220.7 236.9c0.3 0 0.6-0.1 1-0.1-0.3 0-0.6 0.1-1 0.1z" fill="#be202e" opacity=".35"/>
<path d="m220.7 236.9c0.3 0 0.6-0.1 1-0.1-0.3 0-0.6 0.1-1 0.1z" fill="url(#b)"/>
<path d="m220.8 236.9z" fill="#be202e"/>
<path d="m220.8 236.9z" fill="#be202e" opacity=".35"/>
<path d="m220.8 236.9z" fill="url(#a)"/>
</g>
<g>
<path d="m23.541 2.7166h13.1q1.6 0 3.2 0 1.7 0 2.4 0.7 0.6 0.5 0.7 1.5 0.1 0.9 0.3 1.8 0.2 1.6 0.4 3.3 0.3 1.6 0.5 3.3 1.1 6.3 1.8 12.8 0.8 6.5 1.9 12.9 0.4 2 0.6 4.1t0.6 4.1q0.1 0.5 0.2 1t0.5 0.8q0.2 0.1 0.3 0.2 0.2 0.1 0.5-0.1 0.8-0.2 1.3-1.2t1-1.8q1.2-2.3 2.3-4.5 1.1-2.3 2.4-4.6 3.2-6.1 6.4-12.2 3.3-6.2 6.5-12.4 0.8-1.6 1.6-3.1 0.9-1.6 1.7-3.2 0.4-0.8 0.9-1.6t1.4-1.3q0.7-0.5 1.6-0.5 1 0 2 0h6.5 6.9q0.9 0 1.8 0 1 0 1.4 0.4 1 0.6 0.6 2.3-0.3 1.6-0.6 3.3l-3 15-7.5 37.2-1.7 8.7q-0.2 1.1-0.5 2.2-0.3 1-1 1.5t-1.6 0.6q-0.9 0-2 0h-4.8-2.7q-0.7-0.2-1.3-0.3-0.5-0.1-0.8-0.7-0.3-0.5-0.2-1.3 0.2-0.8 0.4-1.7l1-5.1 5.2-25.7q0.2-1.4 0.4-2.6 0.3-1.3 0.5-2.6 0.2-0.8 0.4-1.6 0.2-0.9 0.2-1.7-0.1-0.7 0-1.5 0.2-0.8-0.3-1-0.3-0.1-0.5 0.1t-0.3 0.3q-0.5 0.4-0.9 1-0.3 0.5-0.6 1-0.9 1.5-1.8 3.1-0.8 1.6-1.8 3.2-0.3 0.6-0.6 1.2-0.2 0.6-0.6 1.2-0.8 1.3-1.5 2.6-0.6 1.3-1.4 2.6-0.2 0.3-0.3 0.7-0.1 0.3-0.3 0.6-0.6 0.9-1.1 1.9-0.4 1-1.1 2-0.6 0.9-1.1 1.9-0.4 1-1 2-1.8 2.9-3.3 5.9-1.5 2.9-3.1 5.8-0.3 0.3-0.4 0.6 0 0.3-0.3 0.6-0.7 1.1-1.3 2.3-0.5 1.1-1.2 2.2-0.4 0.7-0.8 1.3t-0.9 1q-0.6 0.4-1.1 0.5-0.5 0-1.3 0.2h-2.3q-0.7 0-1.7 0.1-0.9 0-1.9 0-0.9 0-1.7-0.1t-1.1-0.4q-0.7-0.5-0.9-1.1-0.1-0.7-0.4-1.6-0.2-1.2-0.3-2.4-0.1-1.3-0.4-2.5l-0.1-0.9q-0.3-1.2-0.4-2.5-0.1-1.4-0.4-2.6 0-0.3 0-0.5 0-0.3-0.1-0.6-0.3-0.9-0.4-1.9t-0.3-2q0-0.2 0-0.5t-0.1-0.5q-0.2-1-0.3-2 0-1-0.3-2-0.4-2-0.7-4.2-0.2-2.2-0.6-4.3-0.4-2.5-0.7-5.1-0.2-2.6-0.9-5-0.2-1.4-0.6-2.3-0.2-0.2-0.4-0.3-0.1-0.2-0.4 0-0.6 0.3-0.8 1-0.1 0.7-0.4 1.4-0.4 0.7-0.5 1.5-0.1 0.7-0.2 1.5-0.2 1.1-0.5 2.2-0.2 1.1-0.5 2.2l-5.3 26.6-1 4.9q-0.2 0.8-0.4 1.6-0.1 0.8-0.6 1.3-0.5 0.7-1.7 0.9-0.7 0.2-1.5 0.2-0.8-0.1-1.6-0.1h-5.2q-1.1 0-2 0-0.9-0.1-1.4-0.6t-0.4-1.5q0.2-1.1 0.4-2.2l1.7-8.8 7.5-37.2 2.8-14q0.1-0.6 0.2-1.4 0.2-0.9 0.4-1.7t0.4-1.5q0.3-0.8 0.5-1.2 0.6-0.7 1.8-1 0.3-0.1 0.4 0 0.2 0 0.5-0.1z" style=""/>
<path d="m143.07 70.017q0 1.1-0.2 2.2t-1.3 1.5q-0.7 0.3-1.5 0.3t-1.6 0h-5.4q-0.9 0-1.8 0-0.8-0.1-1.2-0.5-0.6-0.4-0.8-1.1-0.2-0.8-0.7-1.3-0.2-0.2-0.5-0.3-0.2-0.2-0.7-0.1-0.6 0.2-1.1 0.5t-1 0.5q-0.6 0.4-1.3 0.7-0.6 0.3-1.3 0.6-1.4 0.6-2.9 1-1.5 0.3-3 0.7-0.8 0.2-1.5 0.2-0.6 0.1-1.3 0.2-0.3 0-0.6 0-0.3 0.1-0.6 0.1h-1.1q-1.1 0.2-2 0h-0.9q-0.7-0.2-1.4-0.2-0.6 0.1-1.2-0.1-0.9-0.2-1.8-0.4-0.9-0.1-1.6-0.5-2.7-1.1-4.4-2.8-1.7-1.8-2.3-4.7-0.2-0.7-0.3-1.5 0-0.8-0.1-1.7-0.1-0.5 0-1 0.2-0.5 0.2-1 0-0.3 0.1-1.2 0.2-1 0.4-1.4 0.4-1 0.5-1.7 0.5-1.1 1-2.2 0.6-1.2 1.3-2.1 2.2-2.9 4.7-4.4t6.2-2.6q1.4-0.5 2.8-0.7t2.9-0.5q0.8-0.2 1.7-0.2 1-0.1 1.9-0.3 0.7-0.2 1.4-0.1 0.7 0 1.6-0.2 0.7-0.2 1.4-0.2t1.5-0.2q2.2-0.5 4-0.8 1.9-0.4 3.6-1.8 1-0.9 1.6-2 0.1-0.3 0.1-0.5t0.1-0.4q0.2-0.2 0.2-0.6 0.1-0.4 0.2-0.6 0-0.4 0-0.8t0-0.7q-0.4-3-3.4-4.1-0.8-0.3-2.1-0.4-1.2-0.2-2.5-0.1-1.3 0-2.6 0.2-1.2 0.2-2.1 0.5-0.7 0.2-1.3 0.6-0.6 0.3-1.2 0.7t-1.3 1.1-1 1.3q-0.7 1-1.2 1.9t-1.7 1.2q-0.8 0.2-1.7 0.2t-1.8 0h-3.8q-0.5 0-1.1 0.1-0.5 0-0.8-0.1h-0.9q-0.2-0.1-0.5-0.1t-0.5-0.2q-0.7-0.2-0.8-1.3 0-0.5 0.2-1t0.4-0.9q0.5-1.1 1-2 0.6-1 1.2-1.8 0.4-0.5 0.8-1t0.8-1q1-1.1 2.4-2.1 0.3-0.1 0.7-0.5 0.6-0.4 1-0.7 0.5-0.3 1.1-0.6 1.9-1.1 3.9-1.7 2.1-0.7 4.2-1.3 1.3-0.3 2.6-0.4t2.7-0.4q0.4-0.1 1.2 0t1.1-0.1q4.1-0.1 7.7 0.3 3.7 0.4 6.5 1.5 2.9 1.1 4.7 3 1.9 1.8 2.5 4.7 0.3 1.7 0 3.9t-0.8 4.5l-4.5 22.3q-0.3 1.9-0.7 3.9-0.4 1.9-0.3 3.5 0 0.3-0.1 0.7 0 0.3 0 0.6zm-11.6-15.4q0.2-0.5 0.3-1.1 0.1-0.7 0.1-1.2 0-0.6 0.1-1.1t-0.3-0.8q-0.4-0.4-1.4-0.4-0.4 0.1-0.7 0.2-0.3 0-0.8 0.1-0.7 0.2-1.5 0.3t-1.7 0.3q-0.3 0.1-0.9 0.1-1.4 0.3-2.7 0.4t-2.6 0.5q-0.8 0.2-1.6 0.4-0.7 0.1-1.4 0.4-2.3 0.9-4.1 2.7t-2.1 5q-0.1 1.7 0.6 2.8 0.4 1.1 1.7 1.8 1.3 0.6 2.9 0.9t3.4 0.2q1.9-0.2 3.6-0.7 2.8-0.8 4.6-2.5 1.9-1.8 3.2-4.4 0.3-0.7 0.5-1.4 0.2-0.8 0.6-1.6l0.2-0.9z" style=""/>
<path d="m161.29 22.417h7.3q1.1 0 2.1 0.1 1 0 1.6 0.4 1 0.7 1 2.6 0.1 1.8 0.4 3.2 0.4 3.3 0.7 6.8 0.3 3.4 0.7 6.8 0.4 2.4 0.6 4.9t0.6 4.8q0.1 0.9 0.2 1.9 0.2 1 1.3 1 0.3-0.2 0.4-0.2 0.1-0.1 0.3-0.3 0.4-0.5 0.7-1t0.6-1.1q0.8-1.1 1.2-2.3 0.5-1.2 1.2-2.3 2.2-4.2 4.3-8.4 2.1-4.3 4.3-8.5 0.8-1.2 1.3-2.4 0.6-1.3 1.2-2.4 0.4-0.8 0.8-1.6 0.5-0.8 1.2-1.3 0.3-0.2 1.4-0.6 0.6-0.2 1.3-0.1 0.7 0 1.3 0h4.9q1.1 0 2 0.1 1 0 1.4 0.5 0.5 0.5 0.1 1.5-0.3 0.9-0.6 1.5-0.8 1.4-1.6 3-0.8 1.5-1.6 2.9-0.4 0.7-0.7 1.4-0.3 0.6-0.6 1.2-0.7 1.1-1.3 2.2t-1.2 2.2q-0.1 0.3-0.3 0.7-0.1 0.3-0.3 0.6-0.9 1.5-1.7 3.1-0.8 1.5-1.6 3-1.7 3-3.3 6.2-1.6 3.1-3.4 6.1-0.8 1.4-1.5 2.8-0.6 1.3-1.4 2.7-0.3 0.5-0.5 0.9-0.2 0.3-0.5 0.8-0.6 1.1-1.2 2.3-0.5 1.1-1.2 2.2t-1.3 2.1q-0.6 0.9-1.7 1.3-0.9 0.3-1.8 0.3-0.9-0.1-1.8-0.1h-6.5q-1.1 0-2.2 0-1 0-1.7-0.4-0.6-0.5-0.8-1.2-0.1-0.8-0.2-1.7-0.3-1.2-0.5-2.5-0.1-1.3-0.3-2.5-0.1-0.4-0.1-0.7 0-0.4-0.1-0.9-0.3-1.2-0.4-2.5t-0.4-2.6q-0.1-0.5-0.1-0.9 0-0.5-0.1-1-0.2-0.9-0.3-1.8-0.1-1-0.3-1.9-0.1-0.3-0.1-0.6 0.1-0.4 0-0.7-0.2-0.9-0.3-1.8t-0.3-1.9q-0.4-2.3-0.7-4.7-0.3-2.5-0.6-4.9-0.6-2.7-0.9-5.4-0.2-2.8-0.7-5.5l-0.3-2.7q-0.1-0.3-0.1-0.7 0.1-0.5 0.4-0.9 0.4-0.7 1.6-1 0.5 0 0.7-0.1z" fill="none"/>
<path d="m259.04 47.717q0 0.8-0.4 1.8t-1 1.3q-0.5 0.4-1.5 0.6-1 0.1-2.2 0.2-1.1 0-2.3 0-1.1-0.1-2-0.1h-24.4q-0.7 0-1.4 0-0.6 0-1.1 0.2-0.9 0.4-1.2 0.8-0.2 0.2-0.6 0.8-0.3 0.5-0.3 1 0.1 0.6 0 1.2 0 0.5 0.1 1.1 0.3 2.4 1.1 4 0.9 1.5 2.6 2.7 0.7 0.5 1.5 0.7 0.9 0.1 1.7 0.4 0.8 0.2 2.1 0.3 1.4 0.1 2.5-0.1h0.9q1-0.2 1.9-0.4 0.9-0.3 1.8-0.6 1.1-0.5 2.5-1.3t2.2-1.6q0.6-0.7 1.3-1.3 0.7-0.7 1.5-1 1.1-0.5 2.6-0.4 1.6 0 2.9 0 0.6 0 1.2 0 0.7-0.1 1.2 0.1h1q0.9 0.2 1.3 0.5 0.3 0.2 0.2 0.9 0 0.7-0.3 1.2-0.8 1.4-1.7 2.5-0.8 1.1-1.8 2.2-2.8 3.3-6 5.3t-7.7 3.4q-1.2 0.4-2.3 0.5t-2.4 0.4q-0.4 0.1-0.9 0-0.4 0-0.8 0.1h-1.1q-0.6 0.2-1.2 0.1-0.6 0-1.1-0.1-0.8-0.1-1.4 0t-1.3-0.1q-0.5-0.2-1.1-0.2t-1-0.2q-1.1-0.2-2.2-0.5-1-0.2-1.8-0.7-1-0.4-1.9-0.7-0.9-0.4-1.6-0.9-2.8-2-4.8-4.6-1.9-2.7-2.8-6.2-0.3-1.1-0.4-2.2 0-1.2-0.3-2.4 0-0.4 0-0.7 0.1-0.4 0.1-0.8-0.1-1.2 0-2.6 0.2-1.4 0.4-2.8 0.1-0.5 0.1-1.1 0.1-0.6 0.3-1.1l0.3-1.2 0.8-2.4q0.7-1.7 1.3-3.3t1.5-3q6.4-10.4 17.6-14.7 1.5-0.6 3-0.8 1.5-0.3 3.2-0.7 0.8-0.1 1.5-0.1t1.5-0.1q5.1-0.1 8.5 1.2 3.4 1.2 5.9 3.2 0.8 0.6 1.5 1.4 0.8 0.7 1.3 1.5 0.2 0.5 0.7 0.8 0.6 1.1 1 2.3 0.5 1.1 1.1 2.3 0.3 0.9 0.4 1.9 0.2 0.9 0.4 2 0.2 1.3 0.2 2.7 0.1 1.4 0.2 2.8 0 0.8-0.3 1.8-0.2 0.9-0.1 1.7l-0.2 1.1zm-13.9-5.9q0.9-1 0.6-2.4-0.2-1.5-0.3-2.2-0.9-2.7-2.9-4.1-2-1.5-6.1-1.6-0.3 0.2-0.7 0.1t-0.7 0q-0.6 0.2-1.2 0.3-0.6 0-1.1 0.2-4.7 1.4-7.6 5.5-0.3 0.4-0.7 1.1-0.4 0.6-0.6 1.3-0.2 0.6-0.2 1.2t0.5 1q0.7 0.5 2.1 0.5t2.7 0h11.1q1.4 0 2.9 0 1.6-0.1 2.2-0.9z" style=""/>
<path d="m302.16 21.117q6-0.2 9.6 1.7 3.7 1.9 5.2 5.6 0.5 1.1 0.6 2.4 0.2 1.2 0.3 2.5 0.1 0.8 0 1.5t0 1.4q-0.2 0.6-0.1 0.8-0.1 1.4-0.4 2.9t-0.6 2.9l-1.7 8.9-3.3 16.2q-0.4 1.9-0.8 3.7-0.4 1.7-1.9 2.2-0.6 0.2-1.4 0.2t-1.6 0h-5.4q-1.2 0-2.1-0.1-0.9-0.2-1.3-0.9-0.3-0.6-0.2-1.5 0.2-1 0.4-2.1l1.4-7 3-14.9q0.7-3.7 1-6.8 0.4-3.2-0.7-5.4-1-2-3.5-2.8-0.5-0.2-1.1-0.2-0.5 0-1-0.2-0.5-0.1-1.3 0-0.7 0-1.1 0.1-0.5 0.1-0.8 0.1t-0.6 0.1q-2.4 0.6-4 1.6-3.7 2.3-5.2 6.7-1.4 4.4-2.5 9.9l-2.5 12.5-1.2 6.1q-0.2 0.9-0.4 1.8t-0.6 1.5q-0.7 1.1-1.9 1.3-1.1 0.2-2.7 0.2h-5q-1.1 0-2.2-0.1t-1.4-0.7q-0.6-0.9-0.2-2.6t0.7-3.2l2.7-13.6 4.4-22 1.1-5.1q0.2-1.1 0.4-2t0.9-1.5q0.2-0.3 0.7-0.4 0.5-0.2 1-0.3h0.5q0.5-0.1 1-0.1 0.6 0 1.1 0h4.2q0.8 0 1.5 0.1 0.8 0 1.4 0.2 0.6 0.3 0.7 0.9 0.2 0.6 0.2 1.4 0 0.4-0.1 0.7t0 0.6q0.1 0.5 0.2 0.6 0.2 0.1 0.5 0.3 1 0.1 1.9-0.7 0.9-0.9 1.8-1.4 3.1-2 6.6-3.2 1-0.3 1.9-0.4 1-0.1 2.2-0.3 0.3-0.1 0.9 0 0.6 0 0.8-0.1z" style=""/>
</g>
<g>
<path d="m326.92 21.038q0.1 0.08 0.1 0.34t-0.1 0.48l-0.02 0.16q-0.08 0.18-0.18 0.3-0.08 0.1-0.26 0.16-0.18 0.04-0.5 0.04-0.32-0.02-0.54-0.02h-0.3q-0.1 0.04-0.18 0.02t-0.16 0.02q-0.22 0.08-0.38 0.38-0.06 0.1-0.08 0.24t-0.04 0.28l-0.96 4.72q-0.02 0.1-0.02 0.18t-0.04 0.16l-0.04 0.16q-0.02 0.06-0.04 0.12 0 0.06-0.06 0.1-0.08 0.16-0.26 0.22-0.1 0.04-0.24 0.04-0.12 0-0.28 0-0.28 0-0.62 0t-0.46-0.16q-0.06-0.12-0.04-0.28 0.04-0.16 0.08-0.36l0.94-4.72q0.02-0.1 0.04-0.2 0.04-0.1 0.02-0.18l0.04-0.28q0.02-0.32-0.2-0.4-0.18-0.1-0.54-0.08-0.34 0.02-0.6 0.02-0.1 0-0.2 0.02-0.08 0-0.14-0.02-0.08-0.04-0.14-0.02-0.06 0-0.12-0.02-0.2-0.1-0.18-0.32t0.08-0.52q0.02-0.12 0.04-0.22 0.04-0.1 0.1-0.2t0.16-0.14q0.1-0.06 0.2-0.1 0.06-0.02 0.08 0 0.04 0 0.1-0.02h5.34q0.18 0 0.34 0.02 0.16 0 0.26 0.08zm10.64 0.04q0.08 0.14 0.04 0.32-0.02 0.18-0.06 0.4l-1.3 6.5q-0.04 0.22-0.1 0.4-0.04 0.16-0.14 0.28-0.14 0.16-0.44 0.16-0.28 0-0.56 0-0.12 0-0.26 0.02-0.12 0-0.2-0.04-0.18-0.06-0.22-0.18-0.02-0.12-0.02-0.3l0.06-0.34q0-0.06 0.02-0.14 0.02-0.1 0.04-0.18l0.52-2.54q0.04-0.24 0.08-0.48 0.06-0.24 0.06-0.44-0.02-0.1-0.02-0.16 0-0.08-0.06-0.12-0.02-0.02-0.06-0.02-0.06 0.04-0.14 0.08-0.2 0.24-0.36 0.54t-0.34 0.58q-0.36 0.62-0.7 1.26-0.34 0.62-0.7 1.22-0.16 0.28-0.34 0.64-0.18 0.34-0.42 0.5-0.12 0.08-0.28 0.1-0.16 0-0.34 0h-0.3q-0.1-0.04-0.18-0.06-0.08-0.04-0.14-0.1t-0.08-0.16-0.04-0.2q-0.06-0.18-0.08-0.36-0.02-0.2-0.06-0.4-0.12-0.58-0.2-1.18-0.08-0.62-0.2-1.2-0.06-0.34-0.12-0.68-0.04-0.34-0.22-0.58-0.04 0-0.06 0.02-0.02 0-0.04 0-0.1 0.08-0.14 0.18-0.06 0.1-0.08 0.2 0 0.08-0.04 0.18l-0.06 0.34q-0.04 0.08-0.06 0.16t-0.02 0.14l-0.48 2.32q-0.04 0.26-0.12 0.64-0.06 0.36-0.18 0.52-0.06 0.04-0.12 0.1-0.04 0.04-0.1 0.06-0.1 0.04-0.24 0.06-0.12 0-0.28 0-0.26 0-0.52 0t-0.4-0.12q-0.1-0.08-0.1-0.26 0.02-0.18 0.06-0.4l1.32-6.6q0.04-0.18 0.08-0.34 0.06-0.18 0.14-0.28 0.1-0.14 0.32-0.18 0.06-0.02 0.08 0 0.04 0 0.1-0.02h1.32q0.22 0 0.42 0t0.3 0.1q0.16 0.12 0.18 0.38 0.04 0.26 0.1 0.48 0.1 0.56 0.2 1.14 0.1 0.56 0.2 1.14 0.08 0.3 0.12 0.62 0.06 0.32 0.12 0.62 0.04 0.12 0.06 0.26 0.04 0.12 0.16 0.16 0.1 0.04 0.18-0.04 0.1-0.08 0.14-0.14 0.2-0.22 0.32-0.46 0.14-0.26 0.28-0.5 0.42-0.66 0.78-1.34 0.38-0.7 0.8-1.36 0.16-0.28 0.32-0.58 0.18-0.32 0.48-0.44 0.14-0.04 0.28-0.04 0.16 0 0.32 0h0.88q0.12 0 0.24 0 0.12-0.02 0.22 0h0.1q0.08 0.04 0.16 0.06 0.1 0.02 0.12 0.08z" style=""/>
</g>
<g transform="matrix(.13273 .019475 -.019475 .13273 170.2 12.57)">
<linearGradient id="t" x1="-7708.8" x2="-7633.2" y1="-803.36" y2="-714.91" gradientTransform="matrix(.4226 -.9063 .9063 .4226 4227 -6584.6)" gradientUnits="userSpaceOnUse">
<stop stop-color="#f69923" offset="0"/>
<stop stop-color="#f79a23" offset=".3123"/>
<stop stop-color="#e97826" offset=".8383"/>
</linearGradient>
<path d="m267.1 19.6c-8.4 5-22.4 19-39 39.3l15.3 28.9c10.7-15.4 21.7-29.2 32.7-41 0.8-0.9 1.3-1.4 1.3-1.4-0.4 0.5-0.9 0.9-1.3 1.4-3.6 3.9-14.4 16.5-30.7 41.6 15.7-0.8 39.8-4 59.5-7.4 5.9-32.8-5.7-47.8-5.7-47.8s-14.8-23.9-32.1-13.6z" fill="url(#j)"/>
<path d="m241.1 184.4c0.1 0 0.2 0 0.3-0.1l-2.2 0.2c-0.1 0.1-0.3 0.1-0.4 0.2 0.8-0.1 1.6-0.2 2.3-0.3z" fill="none"/>
<path d="m225.5 236.1c-1.2 0.3-2.5 0.5-3.8 0.7 1.3-0.2 2.6-0.4 3.8-0.7z" fill="none"/>
<path d="m119.3 352.2c0.2-0.4 0.3-0.9 0.5-1.3 3.4-8.9 6.7-17.5 10-26 3.7-9.4 7.4-18.6 11-27.5 3.8-9.3 7.6-18.4 11.3-27.1 3.9-9.2 7.7-18 11.5-26.5 3.1-6.9 6.1-13.6 9.1-20.1 1-2.2 2-4.3 3-6.4 2-4.2 3.9-8.3 5.8-12.3 1.8-3.7 3.5-7.3 5.2-10.9 0.6-1.2 1.2-2.4 1.7-3.5l0.3-0.6-1.9 0.2-1.5-2.9c-0.1 0.3-0.3 0.6-0.4 0.9-2.7 5.3-5.4 10.7-8 16.2-1.5 3.1-3 6.3-4.6 9.5-4.2 8.8-8.3 17.6-12.3 26.6-4.1 9-8.1 18.1-12 27.1-3.9 8.9-7.6 17.8-11.3 26.7s-7.3 17.7-10.8 26.5c-3.7 9.2-7.3 18.3-10.7 27.3-0.8 2-1.6 4.1-2.3 6.1-2.8 7.3-5.5 14.4-8.1 21.5l2.4 4.7 2.1-0.2c0.1-0.2 0.2-0.4 0.2-0.6 3.1-9.5 6.5-18.6 9.8-27.4z" fill="none"/>
<path d="m220.7 236.9z" fill="none"/>
<path d="m215.6 262.2c-2 0.4-4 0.7-6 1 1-0.1 2.1-0.3 3.1-0.5 1-0.1 2-0.3 2.9-0.5z" fill="#be202e"/>
<path d="m215.6 262.2c-2 0.4-4 0.7-6 1 1-0.1 2.1-0.3 3.1-0.5 1-0.1 2-0.3 2.9-0.5z" fill="#be202e" opacity=".35"/>
<path d="m220.8 236.9c-0.1 0-0.1 0 0 0 0.3 0 0.6-0.1 0.9-0.1 1.3-0.2 2.6-0.4 3.8-0.7-1.5 0.3-3.1 0.5-4.7 0.8z" fill="#be202e"/>
<path d="m220.8 236.9c-0.1 0-0.1 0 0 0 0.3 0 0.6-0.1 0.9-0.1 1.3-0.2 2.6-0.4 3.8-0.7-1.5 0.3-3.1 0.5-4.7 0.8z" fill="#be202e" opacity=".35"/>
<linearGradient id="s" x1="-8268.6" x2="-7729" y1="-813.12" y2="-813.12" gradientTransform="matrix(.4226 -.9063 .9063 .4226 4227 -6584.6)" gradientUnits="userSpaceOnUse">
<stop stop-color="#9e2064" offset=".3233"/>
<stop stop-color="#c92037" offset=".6302"/>
<stop stop-color="#cd2335" offset=".7514"/>
<stop stop-color="#e97826" offset="1"/>
</linearGradient>
<path d="m198.2 162.4c4.7-8.7 9.4-17.2 14.1-25.5 4.9-8.6 9.9-16.9 15-25 0.3-0.5 0.6-1 0.9-1.4 5-7.9 10-15.5 15.1-22.8l-15.3-28.8c-1.1 1.4-2.3 2.8-3.5 4.3-4.4 5.5-9 11.4-13.7 17.7-5.3 7.1-10.7 14.6-16.3 22.5-5.1 7.3-10.3 15-15.5 22.9-4.4 6.8-8.8 13.7-13.2 20.8-0.2 0.3-0.3 0.5-0.5 0.8l19.9 39.3c4.4-8.3 8.7-16.6 13-24.8z" fill="url(#i)"/>
<linearGradient id="r" x1="-8203.5" x2="-7881.9" y1="-758.99" y2="-758.99" gradientTransform="matrix(.4226 -.9063 .9063 .4226 4227 -6584.6)" gradientUnits="userSpaceOnUse">
<stop stop-color="#282662" offset="0"/>
<stop stop-color="#662e8d" offset=".095484"/>
<stop stop-color="#9f2064" offset=".7882"/>
<stop stop-color="#cd2032" offset=".9487"/>
</linearGradient>
<path d="m107.5 384.1c-2.6 7.2-5.3 14.6-7.9 22.2 0 0.1-0.1 0.2-0.1 0.3-0.4 1.1-0.8 2.1-1.1 3.2-1.8 5.1-3.3 9.7-6.9 20.1 5.9 2.7 10.6 9.7 15 17.7-0.5-8.3-3.9-16.1-10.4-22.1 28.9 1.3 53.9-6 66.7-27.2 1.1-1.9 2.2-3.9 3.2-6-5.9 7.4-13.1 10.6-26.8 9.8h-0.1 0.1c20.1-9 30.2-17.7 39.1-32 2.1-3.4 4.2-7.1 6.3-11.2-17.6 18.1-38 23.2-59.5 19.3l-16.1 1.8c-0.5 1.4-1 2.7-1.5 4.1z" fill="url(#h)"/>
<linearGradient id="q" x1="-8238.3" x2="-7698.6" y1="-818.15" y2="-818.15" gradientTransform="matrix(.4226 -.9063 .9063 .4226 4227 -6584.6)" gradientUnits="userSpaceOnUse">
<stop stop-color="#9e2064" offset=".3233"/>
<stop stop-color="#c92037" offset=".6302"/>
<stop stop-color="#cd2335" offset=".7514"/>
<stop stop-color="#e97826" offset="1"/>
</linearGradient>
<path d="m115 348c3.5-9 7.1-18.1 10.7-27.3 3.5-8.8 7.1-17.6 10.8-26.5s7.5-17.8 11.3-26.7c3.9-9.1 7.9-18.1 12-27.1 4-8.9 8.2-17.8 12.3-26.6 1.5-3.2 3-6.3 4.6-9.5 2.6-5.4 5.3-10.8 8-16.2 0.1-0.3 0.3-0.6 0.4-0.9l-19.7-39.2c-0.3 0.5-0.6 1.1-1 1.6-4.6 7.6-9.3 15.3-13.8 23.2-4.6 8-9.1 16.1-13.5 24.4-3.7 7-7.3 14-10.9 21.1-0.7 1.4-1.4 2.9-2.1 4.3-4.3 8.9-8.3 17.6-11.8 25.9-4 9.4-7.5 18.4-10.6 26.9-2 5.6-3.9 11-5.6 16.2-1.4 4.4-2.7 8.9-4 13.3-3 10.4-5.5 20.8-7.6 31.2l20 39.5c2.6-7.1 5.4-14.2 8.1-21.5 0.8-2 1.6-4 2.4-6.1z" fill="url(#g)"/>
<linearGradient id="p" x1="-8199" x2="-7915.4" y1="-810.85" y2="-810.85" gradientTransform="matrix(.4226 -.9063 .9063 .4226 4227 -6584.6)" gradientUnits="userSpaceOnUse">
<stop stop-color="#282662" offset="0"/>
<stop stop-color="#662e8d" offset=".095484"/>
<stop stop-color="#9f2064" offset=".7882"/>
<stop stop-color="#cd2032" offset=".9487"/>
</linearGradient>
<path d="m84.2 337.5c-2.5 12.6-4.3 25.2-5.2 37.8 0 0.4-0.1 0.9-0.1 1.3-6.2-10-23-19.8-22.9-19.7 12 17.4 21.1 34.6 22.4 51.5-6.4 1.3-15.2-0.6-25.3-4.3 10.6 9.7 18.5 12.4 21.6 13.1-9.7 0.6-19.8 7.3-30 15 14.9-6.1 27-8.5 35.6-6.5-13.7 38.7-27.4 81.5-41.1 126.9 4.2-1.2 6.7-4.1 8.1-7.9 2.4-8.2 18.7-62.2 44.1-133.1 0.7-2 1.5-4 2.2-6.1 0.2-0.6 0.4-1.1 0.6-1.7 2.7-7.4 5.5-15 8.4-22.8 0.7-1.8 1.3-3.5 2-5.3v-0.1l-20-39.5c-0.2 0.5-0.3 0.9-0.4 1.4z" fill="url(#f)"/>
<linearGradient id="o" x1="-8238.3" x2="-7698.6" y1="-762.3" y2="-762.3" gradientTransform="matrix(.4226 -.9063 .9063 .4226 4227 -6584.6)" gradientUnits="userSpaceOnUse">
<stop stop-color="#9e2064" offset=".3233"/>
<stop stop-color="#c92037" offset=".6302"/>
<stop stop-color="#cd2335" offset=".7514"/>
<stop stop-color="#e97826" offset="1"/>
</linearGradient>
<path d="m188.4 190.6c-0.6 1.2-1.1 2.3-1.7 3.5-1.7 3.6-3.5 7.2-5.2 10.9-1.9 4-3.8 8.1-5.8 12.3-1 2.1-2 4.2-3 6.4-3 6.5-6 13.2-9.1 20.1-3.8 8.5-7.6 17.3-11.5 26.5-3.7 8.7-7.5 17.8-11.3 27.1-3.6 8.9-7.3 18-11 27.5-3.3 8.4-6.6 17.1-10 26-0.2 0.4-0.3 0.9-0.5 1.3-3.3 8.8-6.7 17.9-10.1 27.2-0.1 0.2-0.2 0.4-0.2 0.6l16.1-1.8c-0.3-0.1-0.6-0.1-1-0.2 19.3-2.4 44.9-16.8 61.4-34.6 7.6-8.2 14.5-17.8 20.9-29.1 4.8-8.4 9.2-17.7 13.5-28.1 3.7-9 7.3-18.8 10.7-29.4-4.4 2.3-9.5 4-15.1 5.2l-3 0.6c-1 0.2-2 0.3-3.1 0.5 18-6.9 29.3-20.2 37.5-36.6-4.7 3.2-12.4 7.4-21.6 9.5-1.2 0.3-2.5 0.5-3.8 0.7-0.3 0-0.6 0.1-1 0.1 6.2-2.6 11.5-5.5 16.1-9 1-0.7 1.9-1.5 2.8-2.3 1.4-1.2 2.7-2.5 4-3.8 0.8-0.9 1.6-1.7 2.4-2.6 1.8-2.1 3.5-4.4 5-6.9 0.5-0.8 1-1.5 1.4-2.3 0.6-1.2 1.2-2.3 1.7-3.4 2.5-5 4.5-9.5 6.1-13.5 0.8-2 1.5-3.8 2.1-5.5 0.2-0.7 0.5-1.3 0.7-2 0.6-1.9 1.2-3.6 1.6-5.1 0.6-2.2 1-4 1.2-5.3-0.6 0.5-1.3 1-2.1 1.4-5.4 3.2-14.7 6.2-22.2 7.6l14.8-1.6-14.8 1.6c-0.1 0-0.2 0-0.3 0.1-0.7 0.1-1.5 0.2-2.3 0.4 0.1-0.1 0.3-0.1 0.4-0.2l-50.6 5.5c0.1 0.4 0 0.6-0.1 0.7z" fill="url(#e)"/>
<linearGradient id="n" x1="-8271.8" x2="-7732.1" y1="-765.07" y2="-765.07" gradientTransform="matrix(.4226 -.9063 .9063 .4226 4227 -6584.6)" gradientUnits="userSpaceOnUse">
<stop stop-color="#9e2064" offset=".3233"/>
<stop stop-color="#c92037" offset=".6302"/>
<stop stop-color="#cd2335" offset=".7514"/>
<stop stop-color="#e97826" offset="1"/>
</linearGradient>
<path d="m245.4 88.4c-4.5 6.9-9.4 14.8-14.7 23.6-0.3 0.5-0.6 0.9-0.8 1.4-4.6 7.7-9.4 16.1-14.5 25.4-4.4 8-9 16.5-13.8 25.8-4.2 8-8.4 16.5-12.9 25.5l50.6-5.5c14.7-6.8 21.3-12.9 27.7-21.8 1.7-2.4 3.4-5 5.1-7.7 5.2-8.1 10.3-17 14.8-25.9 4.4-8.6 8.3-17.1 11.2-24.7 1.9-4.9 3.4-9.4 4.5-13.4 0.9-3.5 1.6-6.8 2.2-10-19.6 3.3-43.7 6.5-59.4 7.3z" fill="url(#d)"/>
<path d="m212.7 262.8c-1 0.2-2 0.3-3.1 0.5 1-0.2 2-0.4 3.1-0.5z" fill="#be202e"/>
<path d="m212.7 262.8c-1 0.2-2 0.3-3.1 0.5 1-0.2 2-0.4 3.1-0.5z" fill="#be202e" opacity=".35"/>
<linearGradient id="m" x1="-8238.3" x2="-7698.6" y1="-745.68" y2="-745.68" gradientTransform="matrix(.4226 -.9063 .9063 .4226 4227 -6584.6)" gradientUnits="userSpaceOnUse">
<stop stop-color="#9e2064" offset=".3233"/>
<stop stop-color="#c92037" offset=".6302"/>
<stop stop-color="#cd2335" offset=".7514"/>
<stop stop-color="#e97826" offset="1"/>
</linearGradient>
<path d="m212.7 262.8c-1 0.2-2 0.3-3.1 0.5 1-0.2 2-0.4 3.1-0.5z" fill="url(#c)"/>
<path d="m220.7 236.9c0.3 0 0.6-0.1 1-0.1-0.3 0-0.6 0.1-1 0.1z" fill="#be202e"/>
<path d="m220.7 236.9c0.3 0 0.6-0.1 1-0.1-0.3 0-0.6 0.1-1 0.1z" fill="#be202e" opacity=".35"/>
<linearGradient id="l" x1="-8238.3" x2="-7698.6" y1="-747.59" y2="-747.59" gradientTransform="matrix(.4226 -.9063 .9063 .4226 4227 -6584.6)" gradientUnits="userSpaceOnUse">
<stop stop-color="#9e2064" offset=".3233"/>
<stop stop-color="#c92037" offset=".6302"/>
<stop stop-color="#cd2335" offset=".7514"/>
<stop stop-color="#e97826" offset="1"/>
</linearGradient>
<path d="m220.7 236.9c0.3 0 0.6-0.1 1-0.1-0.3 0-0.6 0.1-1 0.1z" fill="url(#b)"/>
<path d="m220.8 236.9z" fill="#be202e"/>
<path d="m220.8 236.9z" fill="#be202e" opacity=".35"/>
<linearGradient id="u" x1="-7935.1" x2="-7815.9" y1="-747.97" y2="-747.97" gradientTransform="matrix(.4226 -.9063 .9063 .4226 4227 -6584.6)" gradientUnits="userSpaceOnUse">
<stop stop-color="#9e2064" offset=".3233"/>
<stop stop-color="#c92037" offset=".6302"/>
<stop stop-color="#cd2335" offset=".7514"/>
<stop stop-color="#e97826" offset="1"/>
</linearGradient>
<path d="m220.8 236.9z" fill="url(#a)"/>
</g>
</svg>
